<svg width="41" height="41" viewBox="0 0 41 41" fill="none" xmlns="http://www.w3.org/2000/svg">
<path fill-rule="evenodd" clip-rule="evenodd" d="M23.8333 11.0398C23.811 12.8753 22.3088 14.3474 20.4732 14.3326C18.6376 14.3178 17.1594 12.8217 17.1667 10.986C17.1741 9.15038 18.6642 7.66615 20.4999 7.66602C21.3894 7.67105 22.2405 8.02942 22.8657 8.6622C23.4909 9.29498 23.839 10.1503 23.8333 11.0398V11.0398Z" stroke="#F7AC3B" stroke-width="2.5" stroke-linecap="round" stroke-linejoin="round"/>
<path d="M15.0721 19.8848C15.7625 19.8848 16.3221 19.3251 16.3221 18.6348C16.3221 17.9444 15.7625 17.3848 15.0721 17.3848V19.8848ZM7.64285 18.6348V17.3848C7.00468 17.3848 6.46899 17.8655 6.40014 18.4999L7.64285 18.6348ZM5.32872 28.3742C5.25424 29.0605 5.75025 29.6773 6.43658 29.7518C7.12291 29.8262 7.73966 29.3302 7.81413 28.6439L5.32872 28.3742ZM14.2698 19.6107C14.7992 20.0538 15.5875 19.9839 16.0306 19.4545C16.4738 18.9252 16.4038 18.1368 15.8745 17.6937L14.2698 19.6107ZM14.6907 18.3329L13.8739 19.2791C13.8787 19.2833 13.8835 19.2874 13.8884 19.2914L14.6907 18.3329ZM14.6907 4.3829L13.8968 3.41737C13.8891 3.42372 13.8815 3.43015 13.8739 3.43668L14.6907 4.3829ZM26.3071 4.3829L27.1239 3.43668C27.1125 3.42682 27.1009 3.41716 27.0891 3.40772L26.3071 4.3829ZM26.3071 18.3329L27.1095 19.2914C27.1143 19.2874 27.1191 19.2833 27.1239 19.2791L26.3071 18.3329ZM25.1234 17.6937C24.594 18.1368 24.5241 18.9252 24.9672 19.4545C25.4103 19.9839 26.1987 20.0538 26.7281 19.6107L25.1234 17.6937ZM15.8694 17.6894C15.3387 17.2479 14.5505 17.3203 14.109 17.851C13.6675 18.3817 13.7399 19.1698 14.2706 19.6114L15.8694 17.6894ZM16.9856 21.8699C17.5163 22.3114 18.3045 22.2391 18.746 21.7084C19.1875 21.1776 19.1151 20.3895 18.5844 19.948L16.9856 21.8699ZM25.9279 17.3809C25.2375 17.3809 24.6779 17.9405 24.6779 18.6309C24.6779 19.3212 25.2375 19.8809 25.9279 19.8809V17.3809ZM33.3571 18.6309L34.5998 18.4958C34.5309 17.8614 33.9952 17.3809 33.3571 17.3809V18.6309ZM33.1859 28.6231C33.2605 29.3094 33.8773 29.8053 34.5636 29.7307C35.25 29.6561 35.7458 29.0392 35.6713 28.3529L33.1859 28.6231ZM26.7315 19.5883C27.2603 19.1445 27.3292 18.356 26.8853 17.8273C26.4415 17.2985 25.6531 17.2296 25.1243 17.6734L26.7315 19.5883ZM20.5 23.1866L19.6966 24.1442C20.1614 24.5341 20.839 24.534 21.3036 24.144L20.5 23.1866ZM18.5885 19.9511C18.0596 19.5074 17.2711 19.5764 16.8274 20.1053C16.3837 20.6342 16.4527 21.4226 16.9816 21.8663L18.5885 19.9511ZM7.81411 28.6429C7.88871 27.9566 7.39282 27.3397 6.7065 27.2651C6.02019 27.1905 5.40335 27.6864 5.32875 28.3727L7.81411 28.6429ZM5.5 38.365L4.25732 38.2299C4.21895 38.5828 4.33249 38.9355 4.56959 39.1997C4.80668 39.464 5.14497 39.615 5.5 39.615V38.365ZM18.3571 39.615C19.0475 39.615 19.6071 39.0553 19.6071 38.365C19.6071 37.6746 19.0475 37.115 18.3571 37.115V39.615ZM5.87084 27.4746C5.2991 27.8615 5.14927 28.6387 5.53618 29.2104C5.9231 29.7822 6.70024 29.932 7.27198 29.5451L5.87084 27.4746ZM12.8798 25.7501C13.4516 25.3632 13.6014 24.586 13.2145 24.0143C12.8276 23.4425 12.0504 23.2927 11.4787 23.6796L12.8798 25.7501ZM18.4857 21.9453C19.0574 21.5582 19.2071 20.7811 18.8201 20.2094C18.4331 19.6377 17.6559 19.488 17.0842 19.875L18.4857 21.9453ZM11.4785 23.67C10.9069 24.0571 10.7572 24.8342 11.1442 25.4059C11.5312 25.9776 12.3084 26.1273 12.88 25.7403L11.4785 23.67ZM13.3182 24.19C13.0338 23.561 12.2932 23.2817 11.6642 23.5661C11.0352 23.8506 10.7559 24.5911 11.0403 25.2201L13.3182 24.19ZM17.2182 38.8809C17.5027 39.5099 18.2432 39.7892 18.8722 39.5047C19.5012 39.2203 19.7806 38.4797 19.4961 37.8507L17.2182 38.8809ZM18.3572 37.1144C17.6668 37.1144 17.1072 37.674 17.1072 38.3644C17.1072 39.0548 17.6668 39.6144 18.3572 39.6144V37.1144ZM24.7857 39.6144C25.4761 39.6144 26.0357 39.0548 26.0357 38.3644C26.0357 37.674 25.4761 37.1144 24.7857 37.1144V39.6144ZM24.7857 37.115C24.0954 37.115 23.5357 37.6746 23.5357 38.365C23.5357 39.0553 24.0954 39.615 24.7857 39.615V37.115ZM35.5 38.365V39.615C35.8551 39.615 36.1933 39.464 36.4304 39.1997C36.6675 38.9355 36.7811 38.5828 36.7427 38.2299L35.5 38.365ZM35.6713 28.3727C35.5967 27.6864 34.9798 27.1905 34.2935 27.2651C33.6072 27.3397 33.1113 27.9566 33.1859 28.6429L35.6713 28.3727ZM23.8922 37.4908C23.4094 37.9843 23.4181 38.7757 23.9116 39.2585C24.4051 39.7413 25.1965 39.7326 25.6793 39.2391L23.8922 37.4908ZM35.3221 29.3819C35.8049 28.8884 35.7962 28.097 35.3027 27.6143C34.8092 27.1315 34.0178 27.1402 33.5351 27.6337L35.3221 29.3819ZM15.0721 17.3848H7.64285V19.8848H15.0721V17.3848ZM6.40014 18.4999L5.32872 28.3742L7.81413 28.6439L8.88556 18.7696L6.40014 18.4999ZM15.8745 17.6937L15.493 17.3744L13.8884 19.2914L14.2698 19.6107L15.8745 17.6937ZM15.5075 17.3867C13.7549 15.8738 12.7474 13.6732 12.7474 11.3579H10.2474C10.2474 14.3999 11.5712 17.2913 13.8739 19.2791L15.5075 17.3867ZM12.7474 11.3579C12.7474 9.04265 13.7549 6.842 15.5075 5.32912L13.8739 3.43668C11.5712 5.42446 10.2474 8.31589 10.2474 11.3579H12.7474ZM15.4846 5.34843C17.4873 3.70174 19.1983 3.14292 20.7199 3.21051C22.2662 3.2792 23.8362 4.00369 25.5251 5.35808L27.0891 3.40772C25.176 1.87354 23.1074 0.814104 20.8308 0.712973C18.5296 0.610746 16.2334 1.4962 13.8968 3.41737L15.4846 5.34843ZM25.4903 5.32912C27.2429 6.842 28.2504 9.04265 28.2504 11.3579H30.7504C30.7504 8.31589 29.4267 5.42446 27.1239 3.43668L25.4903 5.32912ZM28.2504 11.3579C28.2504 13.6732 27.2429 15.8738 25.4903 17.3867L27.1239 19.2791C29.4267 17.2913 30.7504 14.3999 30.7504 11.3579H28.2504ZM25.5048 17.3744L25.1234 17.6937L26.7281 19.6107L27.1095 19.2914L25.5048 17.3744ZM14.2706 19.6114L16.9856 21.8699L18.5844 19.948L15.8694 17.6894L14.2706 19.6114ZM25.9279 19.8809H33.3571V17.3809H25.9279V19.8809ZM32.1145 18.7659L33.1859 28.6231L35.6713 28.3529L34.5998 18.4958L32.1145 18.7659ZM25.1243 17.6734L19.6964 22.2291L21.3036 24.144L26.7315 19.5883L25.1243 17.6734ZM21.3035 22.229L18.5885 19.9511L16.9816 21.8663L19.6966 24.1442L21.3035 22.229ZM5.32875 28.3727L4.25732 38.2299L6.74268 38.5L7.81411 28.6429L5.32875 28.3727ZM5.5 39.615H18.3571V37.115H5.5V39.615ZM7.27198 29.5451L12.8798 25.7501L11.4787 23.6796L5.87084 27.4746L7.27198 29.5451ZM17.0842 19.875L11.4785 23.67L12.88 25.7403L18.4857 21.9453L17.0842 19.875ZM11.0403 25.2201L17.2182 38.8809L19.4961 37.8507L13.3182 24.19L11.0403 25.2201ZM18.3572 39.6144H24.7857V37.1144H18.3572V39.6144ZM24.7857 39.615H35.5V37.115H24.7857V39.615ZM36.7427 38.2299L35.6713 28.3727L33.1859 28.6429L34.2573 38.5L36.7427 38.2299ZM25.6793 39.2391L35.3221 29.3819L33.5351 27.6337L23.8922 37.4908L25.6793 39.2391Z" fill="black"/>
</svg>
