<svg width="279" height="358" viewBox="0 0 279 358" fill="none" xmlns="http://www.w3.org/2000/svg">
<path d="M356.485 324.301L345.491 262.476C342.557 245.91 326.802 229.642 310.358 226.181L245.406 212.469C242.444 208.98 239.415 206.208 236.142 204.044C235.831 200.853 236.075 198.473 236.981 196.512C240.267 189.264 242.809 182.543 244.662 175.944C248.989 174.078 251.383 170.494 252.303 169.034C253.844 166.735 255.115 164.247 256.197 161.691C259.118 154.794 260.43 148.006 261.85 140.825C262.391 138.053 263.256 135.349 264.257 132.266L265.772 127.276C267.462 121.38 266.515 115.443 263.135 110.927C262.459 110.075 261.728 109.236 260.903 108.493C264.568 89.3715 262.567 71.0618 254.98 54.0908C245.122 32.0623 229.34 17.877 208.082 11.9811C200.292 9.79043 192.219 8.18123 184.064 7.19408L184.037 4.25965L181.495 4.13795C176.816 3.88101 172.151 3.8134 167.444 3.8134L162.292 3.84045C159.317 3.89454 156.247 4.20556 153.137 4.77351L149.918 0L137.355 8.15419C134.908 9.69578 132.46 11.2509 130.134 12.9412C126.915 15.3212 124.332 18.1475 122.439 21.3659C115.907 23.0562 109.876 26.3287 104.048 31.3727C103.236 32.0894 102.492 32.8466 101.505 34.0231L94.4732 42.6506L96.975 45.1523C94.5408 50.6831 93.8782 55.9705 95.0411 59.581C91.6603 75.1321 92.1878 91.0213 96.7316 109.453C94.108 111.995 92.4853 115.389 91.9308 119.568C91.1194 125.41 90.6461 133.09 94.2703 140.744C95.9337 144.26 97.002 147.938 98.3408 152.523L99.0981 155.092C100.031 158.216 101.248 161.272 102.601 164.26C103.723 166.735 105.238 169.074 107.104 171.306C108.673 173.131 110.417 174.578 112.283 175.633C114.231 182.665 116.962 189.318 120.438 195.471C120.37 198.77 120.235 202.016 120.113 205.329L120.032 207.411C117.733 208.885 115.745 210.575 113.838 212.212L47.6693 226.154C31.2251 229.615 15.457 245.87 12.536 262.449L1.52814 324.274C-0.0540794 333.118 2.05554 341.543 7.4513 348.02C12.8471 354.471 20.7717 357.986 29.7511 357.986H328.235C337.215 357.986 345.139 354.416 350.522 348.02C355.931 341.583 358.068 333.159 356.485 324.301ZM119.572 225.87L122.182 225.207L121.952 224.071C124.292 222.056 126.997 220.393 129.404 219C129.796 218.743 130.147 218.5 130.905 217.891C133.136 216.728 134.299 214.984 134.434 211.333L134.597 207.533C134.772 203.341 134.935 199.203 135.016 195.038C135.043 193.388 134.583 191.536 133.745 189.994C129.322 181.826 126.415 173.807 124.873 165.491L124.387 164.111L122.48 161.393L119.735 163.084C119.572 163.084 119.112 162.962 118.22 161.907C117.233 160.758 116.421 159.487 115.867 158.27C114.785 155.876 113.798 153.469 113.068 150.981L112.337 148.452C110.999 143.854 109.606 139.122 107.455 134.551C105.481 130.386 105.792 125.653 106.36 121.556C106.59 119.919 106.698 119.081 111.12 118.729L114.46 118.445L113.487 115.254C106.455 92.1842 105.616 74.172 110.796 56.863L109.078 56.2274C109.024 52.9819 111.35 47.4917 116.394 42.3125L115.407 40.9062C120.005 37.3632 124.738 35.3619 129.782 34.8074C131.365 34.6452 133.379 33.4011 133.853 31.6161C134.61 28.8439 136.206 26.5856 138.762 24.6925C140.668 23.2996 142.656 22.0285 144.658 20.7573L145.577 22.0961C151.474 19.8378 156.829 18.6208 161.9 18.4314L163.428 20.4869L166.092 20.541C179.02 20.7303 191.854 22.5423 204.201 26.0177C221.361 30.8047 233.641 41.9609 241.714 60.0949C249.152 76.6737 250.206 94.0233 244.959 113.144L244.392 115.146L243.959 117.688L246.42 118.499L248.827 118.635C249.679 118.635 250.869 118.837 251.572 119.757C252.194 120.595 252.303 121.853 251.856 123.354L250.45 128.006C249.382 131.36 248.327 134.686 247.529 138.729C246.339 144.855 245.203 150.643 242.85 156.133C242.12 157.85 241.281 159.568 240.253 161.123C239.415 162.394 239.023 162.638 239.063 162.665C238.955 162.651 238.455 162.529 237.008 161.569L233.627 159.23L232.423 165.22C230.747 173.185 227.92 181.448 223.769 190.562C220.482 197.797 221.416 205.464 223.174 212.401L224.431 214.118L225.216 214.484C227.42 215.565 229.529 217.107 231.937 219.446C233.127 220.582 234.317 221.718 235.358 223.043C235.642 223.381 235.926 223.706 236.372 224.179L236.278 225.45L244.73 227.235L197.195 282.76L188.906 254.795L202.835 244.545L179.034 227.033L155.219 244.517L169.175 254.781L161.197 281.678L113.257 227.262L119.572 225.87ZM339.406 338.717C336.836 341.813 332.874 343.504 328.262 343.504H271.14V310.657C271.14 306.668 267.895 303.409 263.865 303.409C259.862 303.409 256.603 306.668 256.603 310.657V343.504H101.411V310.657C101.411 306.668 98.1515 303.409 94.1486 303.409C90.1457 303.409 86.8731 306.668 86.8731 310.657V343.504H29.7646C25.1532 343.504 21.1909 341.813 18.608 338.717C16.025 335.62 15.0378 331.428 15.8492 326.884L26.8571 265.004C28.7774 254.173 39.907 242.705 50.685 240.434L96.9209 230.67L174.517 318.798C175.896 320.38 177.884 321.299 180.035 321.299C182.144 321.299 184.132 320.393 185.498 318.757L260.903 230.643L307.383 240.447C318.147 242.719 329.263 254.24 331.197 265.031L342.191 326.911C342.989 331.428 342.029 335.606 339.406 338.717Z" fill="white"/>
</svg>
