<svg width="140" height="140" viewBox="0 0 140 140" fill="none" xmlns="http://www.w3.org/2000/svg">
<path d="M84.4922 30.4882C82.0654 30.5053 79.6558 30.6249 77.1094 31.3085C74.563 31.9921 72.0166 33.0859 69.3164 34.8632C65.9668 32.8979 62.7197 31.2744 59.6094 30.8984C55.7471 30.4199 52.1582 30.6762 47.9883 30.7617C43.0493 30.8642 39.8193 33.3935 34.5898 35.4101C29.3604 37.4267 22.627 39.3749 13.125 39.3749H8.75V81.4843L11.2109 82.7148L19.2773 86.6796L47.9883 118.672L48.125 118.809C51.4062 122.056 55.8325 122.859 59.7461 122.637C63.6597 122.415 67.334 121.269 70.2734 119.492C76.7334 115.596 94.3359 103.359 94.3359 103.359L94.7461 103.086L95.0195 102.812C97.1045 100.745 98.147 98.2153 98.8477 95.5664L115.664 87.0898L128.242 82.8515L131.25 81.8945V39.3749H126.875C117.39 39.3749 110.64 37.3242 105.41 35.2734C100.181 33.2226 97.002 30.7275 92.0117 30.6249C89.3457 30.5737 86.9189 30.4711 84.4922 30.4882ZM84.6289 39.2382C86.5942 39.2211 88.8672 39.3237 91.7383 39.3749C92.1997 39.392 96.4038 41.1865 102.266 43.4765C107.222 45.4248 114.109 47.1508 122.5 47.7148V75.6054L112.383 79.0234H112.109L111.836 79.1601L98.5742 85.8593C97.8394 83.8598 96.8311 82.0141 95.293 80.3906L95.0195 79.9804L76.4258 57.1484L73.6914 53.7304L70.2734 56.4648L58.5156 66.0351C54.5679 68.7695 51.3721 67.9833 48.125 66.4453C47.1851 66.0009 47.2363 65.8642 46.4844 65.3515L66.4453 48.8085L66.7188 48.5351C72.6489 42.6562 76.2891 40.6225 79.4336 39.7851C81.0059 39.3579 82.6636 39.2553 84.6289 39.2382ZM54.1406 39.3749C55.8154 39.3408 57.2168 39.3579 58.5156 39.5117C59.6606 39.6484 60.9595 40.6225 62.0703 41.0156C61.626 41.4257 61.3013 41.665 60.8398 42.1093C60.7373 42.2119 60.6689 42.2802 60.5664 42.3828L36.6406 62.207L32.9492 65.2148L36.2305 68.6328C36.2305 68.6328 39.3921 72.0507 44.2969 74.3749C49.2017 76.6992 56.7725 78.0151 63.5742 73.2812L63.8477 73.0078L72.3242 66.0351L88.457 85.8593L88.5938 86.1328L88.7305 86.2695C91.6187 89.1235 91.5503 93.6181 88.7305 96.5234C88.6963 96.5576 88.7646 96.6259 88.7305 96.6601C88.6963 96.6772 88.1152 97.019 88.0469 97.0703L82.3047 89.2773L75.1953 94.4726L80.8008 101.992C78.5278 103.53 77.5024 104.333 75.0586 105.957L69.1797 98.0273L62.0703 103.223L67.6758 110.742C67.1802 111.05 66.1548 111.733 65.7617 111.973C64.3774 112.81 61.7114 113.75 59.3359 113.887C57.0972 114.006 55.3882 113.494 54.5508 112.793L54.4141 112.656L25.1562 80.2539L24.6094 79.5703L17.5 76.0156V47.7148C25.8569 47.1679 32.7954 45.5102 37.7344 43.6132C43.5791 41.3745 47.749 39.5288 48.2617 39.5117C50.5005 39.4604 52.4658 39.4091 54.1406 39.3749Z" fill="white"/>
</svg>
