<svg width="25" height="25" viewBox="0 0 25 25" fill="none" xmlns="http://www.w3.org/2000/svg">
<path d="M20.7555 4.72266H4.24454C3.55722 4.72266 3 5.27988 3 5.9672V16.4213C3 17.1087 3.55722 17.6659 4.24454 17.6659H9.72467L11.5476 19.8332C11.7841 20.1143 12.1327 20.2766 12.5 20.2766C12.8674 20.2766 13.216 20.1144 13.4525 19.8332L15.2754 17.6659H20.7555C21.4428 17.6659 22 17.1087 22 16.4214V5.96724C22 5.27988 21.4428 4.72266 20.7555 4.72266ZM20.7555 16.4213H14.6959L12.5 19.0321L10.3041 16.4213H4.24454V5.9672H20.7555V16.4213Z" fill="#747474"/>
<path d="M6.54286 9.51212H12.2263C12.5699 9.51212 12.8485 9.23351 12.8485 8.88985C12.8485 8.54619 12.5699 8.26758 12.2263 8.26758H6.54286C6.1992 8.26758 5.92059 8.54619 5.92059 8.88985C5.92059 9.23351 6.1992 9.51212 6.54286 9.51212Z" fill="#747474"/>
<path d="M5.9454 12.7063C5.9454 13.0499 6.22402 13.3285 6.56767 13.3285H18.4323C18.776 13.3285 19.0546 13.0499 19.0546 12.7063C19.0546 12.3626 18.776 12.084 18.4323 12.084H6.56767C6.22402 12.084 5.9454 12.3626 5.9454 12.7063Z" fill="#747474"/>
</svg>
