<svg width="24" height="24" viewBox="0 0 24 24" fill="none" xmlns="http://www.w3.org/2000/svg">
<g clip-path="url(#clip0_205_1697)">
<path d="M23.7579 11.4016L21.386 8.95015L21.864 5.5723C21.929 5.1129 21.618 4.6848 21.1609 4.60464L17.801 4.01554L16.2023 1.00202C15.9849 0.592046 15.4813 0.428859 15.0648 0.632413L11.9999 2.1308L8.93525 0.632527C8.51828 0.428744 8.01519 0.592275 7.79764 1.00214L6.19891 4.01565L2.83906 4.60476C2.38207 4.6848 2.07095 5.11301 2.13597 5.57241L2.61383 8.95026L0.241943 11.4016C-0.0806475 11.735 -0.0806475 12.2642 0.241943 12.5977L2.61372 15.0493L2.13586 18.4273C2.07095 18.8866 2.38196 19.3147 2.83883 19.3949L6.19879 19.9844L7.79764 22.9976C8.01507 23.4074 8.51828 23.5709 8.93513 23.3672L11.9998 21.8692L15.0648 23.3672C15.1863 23.4266 15.3149 23.4547 15.4419 23.4547C15.7505 23.4547 16.0481 23.2879 16.2022 22.9976L17.801 19.9844L21.161 19.3949C21.6179 19.3148 21.929 18.8866 21.864 18.4273L21.386 15.0493L23.758 12.5977C24.0806 12.2642 24.0806 11.7351 23.7579 11.4016ZM19.8574 14.1555C19.673 14.3461 19.5869 14.6114 19.6241 14.8741L20.0444 17.8445L17.0898 18.3628C16.8286 18.4087 16.603 18.5726 16.4787 18.8069L15.0727 21.4565L12.3775 20.1393C12.2584 20.0811 12.1292 20.0519 11.9998 20.0519C11.8706 20.0519 11.7413 20.0811 11.6222 20.1393L8.92722 21.4565L7.52127 18.8069C7.39695 18.5726 7.17138 18.4087 6.91014 18.3628L3.95557 17.8445L4.37575 14.8741C4.41291 14.6115 4.32679 14.3462 4.14227 14.1556L2.05673 11.9998L4.14227 9.84418C4.32667 9.65359 4.41291 9.38833 4.37575 9.12572L3.95557 6.15544L6.91003 5.63743C7.17138 5.59168 7.39695 5.42769 7.52138 5.1934L8.92722 2.54341L11.622 3.86095C11.8603 3.97758 12.139 3.97758 12.3775 3.86095L15.0726 2.54341L16.4786 5.1934C16.6029 5.42769 16.8284 5.59168 17.0898 5.63743L20.0443 6.15544L19.624 9.12572C19.5868 9.38845 19.6729 9.65359 19.8574 9.8443L21.943 11.9998L19.8574 14.1555Z" fill="#747474"/>
<path d="M9.26821 11.3509C10.4166 11.3509 11.3508 10.4167 11.3508 9.26856C11.3508 8.11995 10.4166 7.18555 9.26821 7.18555C8.11971 7.18555 7.18542 8.11995 7.18542 9.26856C7.18542 10.4168 8.11982 11.3509 9.26821 11.3509ZM9.26821 8.56169C9.65778 8.56169 9.97463 8.87877 9.97463 9.26856C9.97463 9.65801 9.65766 9.97475 9.26821 9.97475C8.87854 9.97475 8.56156 9.6579 8.56156 9.26856C8.56156 8.87877 8.87854 8.56169 9.26821 8.56169Z" fill="#747474"/>
<path d="M16.1544 7.84512C15.8858 7.57642 15.4499 7.57631 15.1814 7.84512L7.84568 15.1807C7.57699 15.4494 7.57699 15.8851 7.84568 16.1538C7.98009 16.2882 8.15612 16.3553 8.33226 16.3553C8.50829 16.3553 8.68444 16.2881 8.81884 16.1538L16.1545 8.81816C16.423 8.54947 16.4231 8.11381 16.1544 7.84512Z" fill="#747474"/>
<path d="M14.7315 12.6494C13.5832 12.6494 12.6492 13.5836 12.6492 14.7317C12.6492 15.8804 13.5833 16.8148 14.7315 16.8148C15.8801 16.8148 16.8145 15.8804 16.8145 14.7317C16.8145 13.5836 15.8801 12.6494 14.7315 12.6494ZM14.7315 15.4387C14.3422 15.4387 14.0253 15.1217 14.0253 14.7319C14.0253 14.3425 14.3422 14.0257 14.7315 14.0257C15.1212 14.0257 15.4384 14.3425 15.4384 14.7319C15.4384 15.1215 15.1213 15.4387 14.7315 15.4387Z" fill="#747474"/>
</g>
<defs>
<clipPath id="clip0_205_1697">
<rect width="24" height="24" fill="white"/>
</clipPath>
</defs>
</svg>
