<svg width="24" height="24" viewBox="0 0 24 24" fill="none" xmlns="http://www.w3.org/2000/svg">
<path d="M5.0776 8.4908L9.122 12.001L5.0776 15.5112C4.83429 15.7224 4.80819 16.0909 5.01939 16.3342C5.2306 16.5775 5.59905 16.6035 5.84236 16.3924L10.012 12.7735L11.6177 14.167C11.7273 14.2622 11.8637 14.3098 12 14.3098C12.1364 14.3098 12.2727 14.2622 12.3824 14.167L13.988 12.7735L18.1577 16.3924C18.401 16.6036 18.7695 16.5775 18.9807 16.3342C19.1919 16.0909 19.1658 15.7224 18.9225 15.5112L14.8781 12.001L18.9225 8.4908C19.1658 8.2796 19.1919 7.91115 18.9807 7.6678C18.7695 7.42445 18.4009 7.39843 18.1577 7.6096C17.8185 7.90405 12.3613 12.6404 12 12.9539C11.6387 12.6403 6.1815 7.90397 5.84236 7.6096C5.59905 7.39843 5.23056 7.42453 5.01939 7.6678C4.80819 7.91115 4.83429 8.2796 5.0776 8.4908Z" fill="currentColor"/>
<path d="M20.4167 5.49414H3.58336C3.2612 5.49414 3 5.75538 3 6.07754V17.9234C3 18.2456 3.2612 18.5067 3.58336 18.5067H20.4166C20.7388 18.5067 21 18.2456 21 17.9234V6.07754C21 5.75538 20.7389 5.49414 20.4167 5.49414ZM19.8333 17.34H19.8333H4.16676V6.6609H19.8333V17.34Z" fill="currentColor"/>
</svg>
