<svg width="32" height="32" viewBox="0 0 32 32" fill="none" xmlns="http://www.w3.org/2000/svg">
<path d="M2.66665 18.3335H7.99998C8.17273 18.3335 8.23899 18.3867 8.25954 18.4073C8.28009 18.4278 8.33331 18.4941 8.33331 18.6668V29.3335C8.33331 29.5062 8.28009 29.5725 8.25954 29.5931C8.23899 29.6136 8.17273 29.6668 7.99998 29.6668H2.66665C2.49389 29.6668 2.42764 29.6136 2.40709 29.5931C2.38653 29.5725 2.33331 29.5062 2.33331 29.3335V18.6668C2.33331 18.4941 2.38653 18.4278 2.40709 18.4073C2.42764 18.3867 2.49389 18.3335 2.66665 18.3335ZM24 13.0002H29.3333C29.5061 13.0002 29.5723 13.0534 29.5929 13.0739C29.6134 13.0945 29.6666 13.1607 29.6666 13.3335V29.3335C29.6666 29.5062 29.6134 29.5725 29.5929 29.5931C29.5723 29.6136 29.5061 29.6668 29.3333 29.6668H24C23.8272 29.6668 23.761 29.6136 23.7404 29.5931C23.7199 29.5725 23.6666 29.5062 23.6666 29.3335V13.3335C23.6666 13.1607 23.7199 13.0945 23.7404 13.0739C23.761 13.0534 23.8272 13.0002 24 13.0002ZM13.3333 2.3335H18.6666C18.8394 2.3335 18.9057 2.38672 18.9262 2.40727C18.9468 2.42782 19 2.49408 19 2.66683V29.3335C19 29.5062 18.9468 29.5725 18.9262 29.5931C18.9057 29.6136 18.8394 29.6668 18.6666 29.6668H13.3333C13.1606 29.6668 13.0943 29.6136 13.0738 29.5931C13.0532 29.5725 13 29.5062 13 29.3335V2.66683C13 2.49408 13.0532 2.42782 13.0738 2.40727C13.0943 2.38672 13.1606 2.3335 13.3333 2.3335Z" stroke="currentColor" stroke-width="2"/>
</svg>
