<svg width="57" height="56" viewBox="0 0 57 56" fill="none" xmlns="http://www.w3.org/2000/svg">
<g clip-path="url(#clip0_992_452)">
<path d="M50.2778 9.33301H6.7222C5.89708 9.33301 5.10575 9.66078 4.52231 10.2442C3.93886 10.8277 3.61108 11.619 3.61108 12.4441V43.5552C3.61108 44.3803 3.93886 45.1717 4.52231 45.7551C5.10575 46.3386 5.89708 46.6663 6.7222 46.6663H30.0555L30.9422 45.5774L32.3889 43.8041L32.2489 43.5552H6.7222V12.4441H50.2778V25.7597C51.4595 26.5247 52.5101 27.4754 53.3889 28.5752V12.4441C53.3889 11.619 53.0611 10.8277 52.4776 10.2442C51.8942 9.66078 51.1029 9.33301 50.2778 9.33301Z" fill="black"/>
<path d="M37.8334 18.667H11.3889V21.1559H37.8334V18.667Z" fill="black"/>
<path d="M28.5 24.8887H11.3889V27.3776H28.5V24.8887Z" fill="black"/>
<path d="M26.9445 35.7773H11.3889V38.2662H26.9445V35.7773Z" fill="black"/>
<path d="M43.2155 26.8021C41.225 26.7863 39.2759 27.3713 37.6231 28.4808C35.9703 29.5903 34.6906 31.1725 33.9513 33.0208C33.2119 34.8691 33.0474 36.8974 33.4791 38.8407C33.9108 40.784 34.9187 42.5518 36.3711 43.9132L33.3533 47.5998L34.7533 53.2154L40.4467 46.2776C42.2488 46.8105 44.1667 46.8105 45.9689 46.2776L51.6622 53.2154L53.0622 47.5998L50.0444 43.9132C51.4968 42.5518 52.5047 40.784 52.9364 38.8407C53.3681 36.8974 53.2036 34.8691 52.4643 33.0208C51.725 31.1725 50.4453 29.5903 48.7925 28.4808C47.1396 27.3713 45.1906 26.7863 43.2 26.8021H43.2155ZM43.2155 43.4154C41.8937 43.397 40.6067 42.9882 39.5165 42.2404C38.4263 41.4926 37.5816 40.4392 37.0884 39.2126C36.5952 37.986 36.4757 36.641 36.7448 35.3467C37.014 34.0524 37.6598 32.8665 38.601 31.9382C39.5422 31.0099 40.7369 30.3805 42.0349 30.1293C43.3328 29.8781 44.676 30.0162 45.8957 30.5263C47.1153 31.0364 48.1569 31.8956 48.8896 32.9961C49.6222 34.0965 50.0132 35.3889 50.0133 36.711C49.9969 38.5002 49.2725 40.2101 47.9985 41.4665C46.7246 42.723 45.0048 43.4237 43.2155 43.4154Z" fill="#F7AC3B"/>
</g>
<defs>
<clipPath id="clip0_992_452">
<rect width="56" height="56" fill="white" transform="translate(0.5)"/>
</clipPath>
</defs>
</svg>
