<svg width="32" height="32" viewBox="0 0 32 32" fill="none" xmlns="http://www.w3.org/2000/svg">
<path d="M22.8572 18.516C19.9503 18.516 17.5858 20.8805 17.5858 23.7874C17.5858 26.6943 19.9503 29.0588 22.8572 29.0588C25.7641 29.0588 28.1286 26.6943 28.1286 23.7874C28.1286 20.8805 25.7641 18.516 22.8572 18.516ZM22.8572 27.9445C20.5651 27.9445 18.7001 26.0795 18.7001 23.7874C18.7001 21.4953 20.5651 19.6302 22.8572 19.6302C25.1493 19.6302 27.0144 21.4953 27.0144 23.7874C27.0144 26.0795 25.1493 27.9445 22.8572 27.9445Z" fill="black" stroke="currentColor" stroke-width="0.257143"/>
<path d="M25.8574 23.7006H23.8003V21.6434C23.8003 21.3591 23.5703 21.1291 23.286 21.1291C23.0017 21.1291 22.7717 21.3591 22.7717 21.6434V24.2148C22.7717 24.4992 23.0017 24.7291 23.286 24.7291H25.8574C26.1418 24.7291 26.3717 24.4992 26.3717 24.2148C26.3717 23.9305 26.1418 23.7006 25.8574 23.7006Z" fill="black" stroke="currentColor" stroke-width="0.171429"/>
<path d="M13.0496 11.1022H17.2363C18.0857 11.1022 18.7429 10.3322 18.7429 9.42866V8.78795C18.7429 8.47581 18.5143 8.18795 18.1905 8.18795C17.8668 8.18795 17.6382 8.47581 17.6382 8.78795V9.42866C17.6382 9.70924 17.4393 9.90223 17.2363 9.90223H13.0496C12.8465 9.90223 12.6477 9.70924 12.6477 9.42866V8.78795C12.6477 8.47581 12.4191 8.18795 12.0953 8.18795C11.7715 8.18795 11.5429 8.47581 11.5429 8.78795V9.42866C11.5429 10.3322 12.2001 11.1022 13.0496 11.1022Z" fill="black" stroke="currentColor" stroke-width="0.342857"/>
<path d="M12.0715 20.1879C11.7514 20.1879 11.5429 20.4869 11.5429 20.7879V21.4287C11.5429 22.3212 12.1532 23.1022 12.9661 23.1022H15.6429C15.963 23.1022 16.1715 22.8033 16.1715 22.5022C16.1715 22.2011 15.963 21.9022 15.6429 21.9022H12.9661C12.7923 21.9022 12.6001 21.7203 12.6001 21.4287V20.7879C12.6001 20.4869 12.3916 20.1879 12.0715 20.1879Z" fill="black" stroke="currentColor" stroke-width="0.342857"/>
<path d="M17.2063 27.0151H5.16876C5.11372 27.0151 5.08254 26.9735 5.08254 26.9395V16.7294H25.2032V17.2723C25.2032 17.643 25.5104 17.9294 25.873 17.9294C26.2356 17.9294 26.5429 17.643 26.5429 17.2723V5.20507C26.5429 4.43113 25.8956 3.81512 25.117 3.81512H5.16876C4.39016 3.81512 3.74286 4.43113 3.74286 5.20507V26.9395C3.74286 27.7134 4.39016 28.3294 5.16876 28.3294H17.2063C17.569 28.3294 17.8762 28.043 17.8762 27.6723C17.8762 27.3015 17.569 27.0151 17.2063 27.0151ZM5.16876 5.12941H25.117C25.172 5.12941 25.2032 5.171 25.2032 5.20507V15.4151H5.08254V5.20507C5.08254 5.171 5.11372 5.12941 5.16876 5.12941Z" fill="black" stroke="currentColor" stroke-width="0.514286"/>
</svg>
