<svg width="56" height="56" viewBox="0 0 56 56" fill="none" xmlns="http://www.w3.org/2000/svg">
<path d="M20.4059 36.932H15.8254C15.5843 36.932 15.3776 36.7254 15.3776 36.4843V23.9135C15.3776 23.6725 15.5843 23.4658 15.8254 23.4658H20.4059C20.647 23.4658 20.8536 23.6725 20.8536 23.9135V36.4728C20.8536 36.7254 20.647 36.932 20.4059 36.932Z" fill="black"/>
<path d="M50.8448 27.8044L50.8431 27.8077C50.7832 27.9201 50.78 28.0664 50.8455 28.1968C50.8456 28.1971 50.8457 28.1973 50.8458 28.1975L53.9096 34.1613C53.9098 34.1616 53.9099 34.1618 53.9101 34.1621C54.2756 34.8645 54.3361 35.6643 54.0929 36.413C53.8497 37.1616 53.3259 37.7797 52.6182 38.1313C52.6179 38.1315 52.6177 38.1316 52.6175 38.1317L46.5885 41.1752L46.5871 41.1759C46.4616 41.2382 46.3769 41.3555 46.3552 41.4986L46.355 41.5003L45.3072 48.1313L45.3071 48.1319C45.0756 49.5716 43.8442 50.6116 42.385 50.6116C42.2273 50.6116 42.0698 50.5996 41.9125 50.5755L41.9114 50.5754L35.2344 49.5237L35.2246 49.5222L35.2246 49.522C35.09 49.4952 34.9497 49.5409 34.8475 49.6423L30.0769 54.3912L30.0767 54.3914C29.5165 54.9478 28.7729 55.25 27.9833 55.25C27.1937 55.25 26.4501 54.9478 25.8899 54.3914L25.8897 54.3912L21.1226 49.6459C21.019 49.5523 20.8624 49.5033 20.732 49.5237L14.0571 50.5751C14.0567 50.5751 14.0563 50.5752 14.0559 50.5753C13.9076 50.5997 13.7494 50.6116 13.5927 50.6116C12.1335 50.6116 10.9021 49.5716 10.6706 48.1319L10.6705 48.1313L9.62273 41.5003L9.62247 41.4986C9.60085 41.3555 9.51608 41.2382 9.39064 41.1759L9.38965 41.1755L3.37036 38.1533L3.36829 38.1523C2.66471 37.7908 2.1399 37.1861 1.89599 36.4352C1.65278 35.6864 1.71326 34.8865 2.0789 34.1841C2.07901 34.1838 2.07912 34.1836 2.07924 34.1834L5.1552 28.2066L5.15688 28.2034C5.21681 28.091 5.21997 27.9449 5.15465 27.8144C5.1545 27.8141 5.15435 27.8138 5.1542 27.8135L2.07924 21.8387C2.07915 21.8386 2.07907 21.8384 2.07898 21.8382C1.71327 21.1358 1.65276 20.3358 1.89599 19.587C2.13914 18.8384 2.66295 18.2203 3.37069 17.8687C3.37091 17.8686 3.37113 17.8684 3.37134 17.8683L9.40031 14.8248L9.40178 14.8241C9.52723 14.7618 9.612 14.6445 9.63362 14.5014L9.63387 14.4997L10.6817 7.86873L10.6818 7.86807C10.9132 6.42838 12.1446 5.38838 13.6039 5.38838C13.7509 5.38838 13.9084 5.4005 14.0652 5.42445L14.0663 5.42463L20.7433 6.47629L20.7635 6.47948L20.7752 6.48335C20.776 6.48342 20.7768 6.48349 20.7778 6.48356C20.7819 6.48385 20.787 6.48407 20.7936 6.48419L20.8159 6.48432C20.9419 6.48432 21.045 6.44223 21.1302 6.35767L25.9122 1.60859C26.4724 1.0522 27.216 0.75 28.0056 0.75C28.7952 0.75 29.5387 1.0522 30.099 1.60859L30.0992 1.6088L34.8663 6.35414C34.9698 6.44771 35.1264 6.49666 35.2567 6.47629L50.8448 27.8044ZM50.8448 27.8044L53.9208 21.8277C53.9208 21.8276 53.9208 21.8275 53.9209 21.8274C54.2867 21.1249 54.3473 20.3248 54.104 19.5759C53.8601 18.825 53.3353 18.2202 52.6317 17.8588L52.6298 17.8578L46.5994 14.8246L46.5982 14.8241C46.4728 14.7618 46.388 14.6445 46.3664 14.5014L46.3661 14.4997L45.3183 7.86873L45.3182 7.86807C45.0868 6.42838 43.8554 5.38838 42.3961 5.38838C42.2394 5.38838 42.0811 5.40029 41.9328 5.42477C41.9324 5.42483 41.9321 5.42489 41.9317 5.42494L35.2569 6.47627L50.8448 27.8044ZM51.4871 35.8985L51.4872 35.8986C51.5877 35.8521 51.6638 35.765 51.6994 35.6519C51.7367 35.5332 51.7275 35.4153 51.673 35.3139L51.6709 35.31L51.671 35.31L48.5944 29.3321L48.5941 29.3314C48.1675 28.4962 48.1675 27.4928 48.5941 26.6575L48.5944 26.6568L51.671 20.679L51.6763 20.6685L51.6766 20.6687C51.7256 20.5835 51.7375 20.4694 51.6994 20.3481C51.6638 20.235 51.5877 20.1479 51.4872 20.1014L51.4796 20.0978L51.4796 20.0977L45.4494 17.0535C44.6091 16.6302 44.0122 15.8203 43.8658 14.8875L42.818 8.25673L42.8178 8.25542C42.7841 8.03436 42.5615 7.86436 42.3108 7.90034C42.3104 7.9004 42.3101 7.90045 42.3097 7.90051L35.6355 8.95175L35.6353 8.95178C34.7102 9.09685 33.7384 8.78375 33.0796 8.12942L33.0794 8.12921L28.3107 3.38233C28.1373 3.21934 27.8365 3.22509 27.6801 3.38034L22.9095 8.12921L22.9093 8.12942C22.3603 8.67457 21.5946 8.98801 20.8159 8.98801C20.6688 8.98801 20.5113 8.97588 20.3545 8.95193L20.3534 8.95176L13.6764 7.90009L13.6722 7.89942L13.6722 7.89938C13.4328 7.85743 13.2059 8.02725 13.171 8.25542L13.1708 8.25673L12.1231 14.8875C11.9767 15.8203 11.3798 16.6301 10.5397 17.0534L51.4871 35.8985ZM51.4871 35.8985L51.4796 35.9023L45.4494 38.9465M51.4871 35.8985L45.4494 38.9465M45.4494 38.9465C44.6091 39.3698 44.0122 40.1797 43.8658 41.1125M45.4494 38.9465L43.8658 41.1125M43.8658 41.1125L42.818 47.7433L42.8178 47.7446C42.783 47.9728 42.5561 48.1426 42.3167 48.1006L42.3167 48.1006L42.3124 48.0999L35.6355 47.0482L35.6343 47.0481C35.4781 47.0242 35.3317 47.012 35.173 47.012C34.3834 47.012 33.6398 47.3142 33.0796 47.8706L33.0794 47.8708L28.3087 52.6197L43.8658 41.1125ZM27.6781 52.6177C27.8515 52.7806 28.1521 52.7749 28.3085 52.6199L27.6781 52.6177ZM27.6781 52.6177L22.9095 47.8708L22.9093 47.8706C22.3603 47.3254 21.5946 47.012 20.8159 47.012C20.6592 47.012 20.5009 47.0239 20.3527 47.0484C20.3523 47.0484 20.3519 47.0485 20.3515 47.0486L13.6792 48.0995C13.6789 48.0995 13.6785 48.0996 13.6782 48.0996C13.4298 48.1354 13.2058 47.9681 13.1712 47.7346L13.1708 47.7322L12.1231 41.1015C11.9767 40.1687 11.3798 39.3588 10.5397 38.9355L27.6781 52.6177ZM4.50923 20.0977L10.5395 17.0535V38.9354L4.50923 35.8912L4.5093 35.8911L4.50169 35.8876C4.40119 35.841 4.32508 35.7539 4.28949 35.6408C4.25134 35.5196 4.26327 35.4055 4.3123 35.3203L4.31253 35.3204L4.31789 35.31L7.39442 29.3321L7.39477 29.3314C7.82139 28.4962 7.82139 27.4928 7.39477 26.6575L7.39442 26.6568L4.31789 20.679L4.31793 20.6789L4.31586 20.6751C4.26036 20.5717 4.25355 20.4553 4.28802 20.3526L4.28807 20.3526L4.28949 20.3481C4.32508 20.235 4.40119 20.1479 4.50169 20.1014L4.50175 20.1015L4.50923 20.0977Z" fill="black" stroke="black" stroke-width="0.5"/>
<path d="M36.9832 21.2265H31.8172V17.6103C31.8172 15.785 31.2661 14.4533 30.187 13.6611C28.5109 12.4328 26.3182 13.0642 26.0656 13.1445C25.6294 13.2823 25.3424 13.6841 25.3424 14.1318V18.632C25.3424 21.7661 21.7606 22.9256 21.3703 23.0404C21.0144 22.6615 20.5092 22.4205 19.9582 22.4205H16.2846C15.2169 22.4205 14.3444 23.2929 14.3444 24.3606V36.0129C14.3444 37.0806 15.2169 37.9531 16.2846 37.9531H19.9582C20.3944 37.9531 20.7848 37.8038 21.1177 37.5742C21.8295 38.2286 22.7708 38.6304 23.8155 38.6304H34.8364C37.4539 38.6304 39.1989 37.1954 39.4974 34.7845L40.9783 25.3708C40.9898 25.3134 40.9898 25.2675 40.9898 25.2101C40.9783 23.0174 39.1874 21.2265 36.9832 21.2265ZM19.809 35.8866H16.4108V24.5098H19.809V35.8866ZM37.4309 34.4861C37.4309 34.4975 37.4309 34.509 37.4309 34.5205C37.3735 35.0256 37.1784 36.5525 34.8364 36.5525H23.8155C22.7593 36.5525 21.9098 35.6915 21.9098 34.6468V25.0609C21.9098 25.0609 21.9098 25.0609 21.9213 25.0609C22.1509 25.0035 27.4432 23.4651 27.4432 18.632V15.0043C27.9139 14.9699 28.5224 15.0043 28.9816 15.3372C29.4982 15.7161 29.7622 16.4852 29.7622 17.6103V22.2712C29.7622 22.8452 30.2329 23.3159 30.8069 23.3159H37.0177C38.0509 23.3159 38.8889 24.131 38.9233 25.1527L37.4309 34.4861Z" fill="#F7AC3B"/>
</svg>
