<svg width="41" height="40" viewBox="0 0 41 40" fill="none" xmlns="http://www.w3.org/2000/svg">
<path d="M16.7277 18.0362C16.7277 18.6872 17.2554 19.2149 17.9064 19.2149H28.3843C29.0353 19.2149 29.563 18.6872 29.563 18.0362C29.563 17.3851 29.0353 16.8574 28.3843 16.8574H17.9064C17.2554 16.8574 16.7277 17.3851 16.7277 18.0362Z" fill="#F7AC3B"/>
<path d="M28.3843 23.2715H17.9064C17.2554 23.2715 16.7277 23.7992 16.7277 24.4502C16.7277 25.1013 17.2554 25.629 17.9064 25.629H28.3843C29.0353 25.629 29.563 25.1013 29.563 24.4502C29.563 23.7992 29.0353 23.2715 28.3843 23.2715Z" fill="#F7AC3B"/>
<path d="M28.3843 29.6875H17.9064C17.2554 29.6875 16.7277 30.2152 16.7277 30.8663C16.7277 31.5173 17.2554 32.045 17.9064 32.045H28.3843C29.0353 32.045 29.563 31.5173 29.563 30.8663C29.563 30.2152 29.0353 29.6875 28.3843 29.6875Z" fill="#F7AC3B"/>
<path d="M13.8463 19.2659C14.526 19.2659 15.077 18.715 15.077 18.0353C15.077 17.3557 14.526 16.8047 13.8463 16.8047C13.1667 16.8047 12.6157 17.3557 12.6157 18.0353C12.6157 18.715 13.1667 19.2659 13.8463 19.2659Z" fill="#F7AC3B"/>
<path d="M13.8463 25.682C14.526 25.682 15.077 25.131 15.077 24.4513C15.077 23.7717 14.526 23.2207 13.8463 23.2207C13.1667 23.2207 12.6157 23.7717 12.6157 24.4513C12.6157 25.131 13.1667 25.682 13.8463 25.682Z" fill="#F7AC3B"/>
<path d="M13.8463 32.096C14.526 32.096 15.077 31.545 15.077 30.8654C15.077 30.1857 14.526 29.6348 13.8463 29.6348C13.1667 29.6348 12.6157 30.1857 12.6157 30.8654C12.6157 31.545 13.1667 32.096 13.8463 32.096Z" fill="#F7AC3B"/>
<path d="M35.4786 9.24841L26.5756 0.345245C26.3544 0.124163 26.0546 0 25.7421 0H6.35491C5.70384 0 5.17615 0.527691 5.17615 1.17876V38.8212C5.17615 39.4723 5.70384 40 6.35491 40H34.6451C35.2962 40 35.8239 39.4723 35.8239 38.8212V10.0819C35.8239 9.76929 35.6997 9.46949 35.4786 9.24841ZM26.6589 3.7626L32.0614 9.16511H26.6589V3.7626ZM33.4664 37.6425H7.53366V2.35752H24.3012V10.3439C24.3012 10.9949 24.8289 11.5226 25.48 11.5226H33.4664V37.6425Z" fill="black"/>
</svg>
