<svg width="48" height="48" viewBox="0 0 48 48" fill="none" xmlns="http://www.w3.org/2000/svg">
<g clip-path="url(#clip0_992_1084)">
<path d="M31.208 9.08032C33.2496 9.08032 35.1901 9.88828 36.6545 11.3455C38.1189 12.8027 38.9197 14.7504 38.9197 16.792V32.208C38.9197 34.2495 38.1117 36.1901 36.6545 37.6545C35.1973 39.1189 33.2496 39.9197 31.208 39.9197H15.792C13.7504 39.9197 11.8099 39.1117 10.3455 37.6545C8.88107 36.1973 8.08033 34.2495 8.08033 32.208V16.792C8.08033 14.7504 8.88828 12.8099 10.3455 11.3455C11.8027 9.88107 13.7504 9.08032 15.792 9.08032H31.208ZM31.208 6H15.792C9.85495 6 5 10.8549 5 16.792V32.208C5 38.145 9.85495 43 15.792 43H31.208C37.1451 43 42 38.145 42 32.208V16.792C42 10.8549 37.1451 6 31.208 6Z" fill="#EA1A65"/>
<path d="M33.7378 16.8658C32.4429 16.8658 31.4027 15.8256 31.4027 14.5307C31.4027 13.2359 32.4429 12.1957 33.7378 12.1957C35.018 12.1957 36.0728 13.2359 36.0728 14.5307C36.0728 15.8256 35.018 16.8658 33.7378 16.8658ZM23.6338 18.4225C27.0672 18.4225 29.8533 21.2085 29.8533 24.642C29.8533 28.0755 27.0672 30.8616 23.6338 30.8616C20.2003 30.8616 17.4142 28.0755 17.4142 24.642C17.4142 21.2085 20.2003 18.4225 23.6338 18.4225ZM23.6338 15.3091C18.4836 15.3091 14.3081 19.4846 14.3081 24.6348C14.3081 29.785 18.4836 33.9604 23.6338 33.9604C28.784 33.9604 32.9594 29.785 32.9594 24.6348C32.9594 19.4918 28.784 15.3091 23.6338 15.3091Z" fill="#EA1A65"/>
</g>
<defs>
<clipPath id="clip0_992_1084">
<rect width="48" height="48" fill="white"/>
</clipPath>
</defs>
</svg>
