<svg width="64" height="64" viewBox="0 0 64 64" fill="none" xmlns="http://www.w3.org/2000/svg">
<g clip-path="url(#clip0_162_2408)">
<path d="M11.9129 61.147V23.1483C11.9129 22.6298 12.1669 22.1455 12.594 21.8507L12.5941 21.8507L31.1051 9.08451L31.1051 9.08447C31.6443 8.71247 32.3556 8.71247 32.8947 9.08447L11.9129 61.147ZM11.9129 61.147H9.65967H9.35967V61.447V64.0002V64.3002H9.65967H13.4895H21.1493H28.809H50.5116H54.3415H54.6415V64.0002V61.447V61.147H54.3415H52.0882V23.1483C52.0882 22.6303 51.8347 22.1443 51.4053 21.8504C51.4051 21.8503 51.4049 21.8501 51.4048 21.85L32.8948 9.08451L11.9129 61.147ZM22.7259 61.147V50.2574H27.2324V61.147H22.7259ZM30.3856 61.1483V48.6808C30.3856 47.8091 29.6807 47.1041 28.809 47.1041H21.1493C20.2776 47.1041 19.5726 47.8091 19.5726 48.6808V61.147H15.0662V23.9773L32.0006 12.2976L48.935 23.9773V61.1483H30.3856Z" fill="black" stroke="black" stroke-width="0.6"/>
<path d="M54.5865 18.6512L54.5862 18.651L32.8836 3.96982L32.8836 3.96982L32.8826 3.96914C32.3475 3.61029 31.6524 3.61029 31.1173 3.96914L31.1173 3.96914L31.1163 3.96982L9.41372 18.651L9.41341 18.6512C8.69315 19.1398 8.50399 20.1186 8.99099 20.8405L8.99133 20.841C9.47832 21.5596 10.4572 21.7521 11.1808 21.2634L11.181 21.2633L32.0006 7.17843L52.8189 21.262L52.8192 21.2623C53.0895 21.4446 53.3972 21.5331 53.7019 21.5331C54.2069 21.5331 54.704 21.2907 55.0086 20.8409L55.0089 20.8405C55.4959 20.1186 55.3067 19.1398 54.5865 18.6512Z" fill="black" stroke="black" stroke-width="0.6"/>
<path d="M44.1285 47.1023H35.1921C34.3205 47.1023 33.6155 47.8073 33.6155 48.679V55.0621C33.6155 55.9337 34.3205 56.6387 35.1921 56.6387H44.1285C45.0002 56.6387 45.7051 55.9337 45.7051 55.0621V48.679C45.7051 47.8086 44.9989 47.1023 44.1285 47.1023ZM42.5519 53.4855H36.7688V50.2556H42.5519V53.4855Z" fill="#F7AC3B" stroke="#F7AC3B" stroke-width="0.6"/>
<path d="M44.1285 31.784H35.1921C34.3205 31.784 33.6155 32.4889 33.6155 33.3606V39.7437C33.6155 40.6154 34.3205 41.3203 35.1921 41.3203H44.1285C45.0002 41.3203 45.7051 40.6154 45.7051 39.7437V33.3606C45.7051 32.4902 44.9989 31.784 44.1285 31.784ZM42.5519 38.1671H36.7688V34.9372H42.5519V38.1671Z" fill="#F7AC3B" stroke="#F7AC3B" stroke-width="0.6"/>
<path d="M28.8091 31.784H19.8727C19.001 31.784 18.2961 32.4889 18.2961 33.3606V39.7437C18.2961 40.6154 19.001 41.3203 19.8727 41.3203H28.8091C29.6807 41.3203 30.3857 40.6154 30.3857 39.7437V33.3606C30.3857 32.4902 29.6794 31.784 28.8091 31.784ZM27.2324 38.1671H21.4493V34.9372H27.2324V38.1671Z" fill="#F7AC3B" stroke="#F7AC3B" stroke-width="0.6"/>
</g>
<defs>
<clipPath id="clip0_162_2408">
<rect width="64" height="64" fill="white"/>
</clipPath>
</defs>
</svg>
