<svg width="57" height="56" viewBox="0 0 57 56" fill="none" xmlns="http://www.w3.org/2000/svg">
<g clip-path="url(#clip0_125_669)">
<path d="M35.1589 13.2891C30.6352 13.2891 26.9633 16.961 26.9633 21.4847C26.9633 26.0085 30.6352 29.6804 35.1589 29.6804C39.6827 29.6804 43.3546 26.0085 43.3546 21.4847C43.3661 16.961 39.6942 13.2891 35.1589 13.2891ZM37.5186 24.7308C37.1618 25.1682 36.6899 25.4559 36.1489 25.6056C35.9071 25.6746 35.8035 25.7898 35.815 26.043C35.8265 26.2847 35.815 26.5264 35.815 26.7682C35.815 26.9869 35.6999 27.102 35.4927 27.102C35.228 27.1135 34.9748 27.1135 34.71 27.102C34.4798 27.102 34.3762 26.9639 34.3762 26.7452C34.3762 26.5725 34.3762 26.3883 34.3762 26.2157C34.3762 25.8243 34.3647 25.8128 33.9848 25.7552C33.5014 25.6746 33.0294 25.5711 32.592 25.3523C32.2467 25.1797 32.2122 25.0991 32.3158 24.7308C32.3848 24.466 32.4654 24.1898 32.546 23.925C32.6381 23.6142 32.7302 23.5797 33.0064 23.7293C33.4899 23.9826 34.0078 24.1207 34.5489 24.1898C34.8942 24.2358 35.2395 24.2013 35.5618 24.0516C36.1604 23.7869 36.264 23.0847 35.746 22.6703C35.5733 22.5322 35.3776 22.4171 35.1704 22.3365C34.6409 22.1063 34.0884 21.9221 33.5935 21.6229C32.7877 21.1394 32.2697 20.4718 32.3273 19.4819C32.3963 18.3653 33.0294 17.6747 34.0424 17.3063C34.4683 17.1567 34.4683 17.1567 34.4683 16.7193C34.4683 16.5696 34.4683 16.42 34.4683 16.2704C34.4798 15.9365 34.5373 15.879 34.8596 15.8675C34.9632 15.8675 35.0668 15.8675 35.1704 15.8675C35.8726 15.8675 35.8726 15.8675 35.8726 16.5696C35.8726 17.0646 35.8726 17.0646 36.3676 17.1452C36.7474 17.2027 37.1158 17.3178 37.4611 17.4675C37.6568 17.548 37.7258 17.6862 37.6683 17.8934C37.5762 18.1926 37.4956 18.5034 37.4035 18.8027C37.3114 19.0905 37.2194 19.125 36.9431 18.9984C36.3906 18.7337 35.815 18.6185 35.205 18.6531C35.0438 18.6646 34.8942 18.6876 34.7445 18.7452C34.215 18.9754 34.1345 19.5509 34.5834 19.9078C34.8136 20.0919 35.0668 20.2185 35.3316 20.3337C35.792 20.5293 36.264 20.7135 36.7014 20.9552C38.1287 21.761 38.5086 23.5221 37.5186 24.7308Z" fill="#F7AC3B"/>
<path d="M23.2337 24.1788C24.4861 24.1788 25.5014 23.1635 25.5014 21.9112C25.5014 20.6588 24.4861 19.6436 23.2337 19.6436C21.9814 19.6436 20.9661 20.6588 20.9661 21.9112C20.9661 23.1635 21.9814 24.1788 23.2337 24.1788Z" fill="#F7AC3B"/>
<path d="M47.0956 24.1788C48.3479 24.1788 49.3632 23.1635 49.3632 21.9112C49.3632 20.6588 48.3479 19.6436 47.0956 19.6436C45.8432 19.6436 44.8279 20.6588 44.8279 21.9112C44.8279 23.1635 45.8432 24.1788 47.0956 24.1788Z" fill="#F7AC3B"/>
<path d="M52.7704 8.12109H17.0525C14.992 8.12109 13.3115 9.80167 13.3115 11.8621V31.1196C13.3115 33.18 14.992 34.8606 17.0525 34.8606H52.7589C54.8193 34.8606 56.4999 33.18 56.4999 31.1196V11.8621C56.5114 9.80167 54.8308 8.12109 52.7704 8.12109ZM53.3114 27.0793C53.0121 26.9988 52.7013 26.9642 52.379 26.9642C50.284 26.9642 48.592 28.6563 48.592 30.7513C48.592 31.0736 48.638 31.3844 48.7071 31.6721H20.8971C20.9431 31.4419 20.9661 31.2117 20.9661 30.97C20.9661 28.875 19.274 27.1829 17.1791 27.1829C16.9489 27.1829 16.7302 27.2059 16.5115 27.2405V15.7412C16.7302 15.7758 16.9489 15.7988 17.1791 15.7988C19.274 15.7988 20.9661 14.1067 20.9661 12.0117C20.9661 11.77 20.9431 11.5398 20.8971 11.3096H48.615C48.592 11.4592 48.5805 11.6204 48.5805 11.7815C48.5805 13.8765 50.2725 15.5686 52.3675 15.5686C52.6898 15.5686 53.0006 15.5225 53.2999 15.4535V27.0793H53.3114Z" fill="black"/>
<path d="M45.7949 38.1642H11.8266C10.8827 38.1642 10.1115 37.4045 10.1115 36.4491V18.9872V17.8016V14.6592C8.30433 14.9124 6.92303 16.4664 6.92303 18.3426V37.6462C6.92303 39.7066 8.5921 41.3642 10.641 41.3642H46.3935C48.2697 41.3642 49.8122 39.9714 50.0769 38.1642H46.923H45.7949Z" fill="black"/>
<path d="M39.3719 44.6788H5.40359C4.4597 44.6788 3.68848 43.9191 3.68848 42.9637V25.5019V24.3163V21.1738C1.88129 21.4271 0.5 22.981 0.5 24.8573V44.1608C0.5 46.2213 2.16906 47.8788 4.21798 47.8788H39.9704C41.8467 47.8788 43.3891 46.486 43.6539 44.6788H40.4999H39.3719Z" fill="black"/>
</g>
<defs>
<clipPath id="clip0_125_669">
<rect width="56" height="56" fill="white" transform="translate(0.5)"/>
</clipPath>
</defs>
</svg>
