<svg width="24" height="24" viewBox="0 0 24 24" fill="none" xmlns="http://www.w3.org/2000/svg">
<path d="M18.0872 9.86992H17.1742V7.13078C17.1742 4.27794 14.8532 1.95703 12.0004 1.95703C9.14751 1.95703 6.82654 4.27794 6.82654 7.13078V9.86992H5.91351C5.40928 9.86992 5.00049 10.2787 5.00049 10.783V21.1306C5.00049 21.6348 5.40928 22.0436 5.91351 22.0436H18.0872C18.5914 22.0436 19.0002 21.6348 19.0002 21.1306V10.783C19.0002 10.2787 18.5914 9.86992 18.0872 9.86992ZM8.65259 7.13078C8.65259 5.28489 10.1544 3.78308 12.0004 3.78308C13.8463 3.78308 15.3481 5.28489 15.3481 7.13078V9.86992H8.65259V7.13078ZM17.1742 20.2176H6.82654V11.696H7.73957H16.2611H17.1742V20.2176Z" fill="currentColor"/>
<path d="M13.9395 14.0174C13.583 13.6609 13.0048 13.6609 12.6483 14.0174L12.0005 14.6652L11.3526 14.0174C10.9961 13.6609 10.4179 13.6609 10.0614 14.0174C9.7048 14.374 9.7048 14.9521 10.0614 15.3086L10.7093 15.9564L10.0614 16.6043C9.70486 16.9609 9.70486 17.539 10.0614 17.8955C10.2397 18.0738 10.4734 18.163 10.707 18.163C10.9406 18.163 11.1743 18.0739 11.3526 17.8955L12.0005 17.2477L12.6483 17.8955C12.8266 18.0738 13.0603 18.163 13.2939 18.163C13.5275 18.163 13.7613 18.0739 13.9395 17.8955C14.296 17.539 14.296 16.9609 13.9395 16.6043L13.2917 15.9564L13.9395 15.3086C14.2961 14.9521 14.2961 14.3739 13.9395 14.0174Z" fill="currentColor"/>
</svg>
