<svg width="32" height="32" viewBox="0 0 32 32" fill="none" xmlns="http://www.w3.org/2000/svg">
<path d="M24.4 4H7.6C6.64522 4 5.72955 4.37928 5.05442 5.05442C4.37928 5.72955 4 6.64522 4 7.6L4 24.4C4 25.3548 4.37928 26.2705 5.05442 26.9456C5.72955 27.6207 6.64522 28 7.6 28H24.4C25.3548 28 26.2705 27.6207 26.9456 26.9456C27.6207 26.2705 28 25.3548 28 24.4V7.6C28 6.64522 27.6207 5.72955 26.9456 5.05442C26.2705 4.37928 25.3548 4 24.4 4V4ZM13.6 6.4H18.4V10.156L16.66 8.956C16.4641 8.82697 16.2346 8.7582 16 8.7582C15.7654 8.7582 15.5359 8.82697 15.34 8.956L13.6 10.156V6.4ZM25.6 24.4C25.6 24.7183 25.4736 25.0235 25.2485 25.2485C25.0235 25.4736 24.7183 25.6 24.4 25.6H7.6C7.28174 25.6 6.97652 25.4736 6.75147 25.2485C6.52643 25.0235 6.4 24.7183 6.4 24.4V7.6C6.4 7.28174 6.52643 6.97652 6.75147 6.75147C6.97652 6.52643 7.28174 6.4 7.6 6.4H11.2V12.4C11.2006 12.6171 11.26 12.8299 11.372 13.0159C11.484 13.2019 11.6444 13.354 11.836 13.456C12.0236 13.5524 12.2334 13.5975 12.4441 13.587C12.6547 13.5765 12.8589 13.5106 13.036 13.396L16 11.44L18.94 13.396C19.1205 13.5149 19.3297 13.5828 19.5456 13.5926C19.7615 13.6024 19.976 13.5537 20.1665 13.4517C20.357 13.3497 20.5164 13.1981 20.6279 13.013C20.7394 12.8279 20.7989 12.6161 20.8 12.4V6.4H24.4C24.7183 6.4 25.0235 6.52643 25.2485 6.75147C25.4736 6.97652 25.6 7.28174 25.6 7.6V24.4Z" fill="black"/>
</svg>
