<svg width="57" height="56" viewBox="0 0 57 56" fill="none" xmlns="http://www.w3.org/2000/svg">
<g clip-path="url(#clip0_992_633)">
<path d="M13.4222 5.5664C13.4222 7.78794 11.6213 9.58886 9.39978 9.58886C7.17824 9.58886 5.37732 7.78794 5.37732 5.5664C5.37732 3.34486 7.17823 1.54395 9.39978 1.54395C11.6213 1.54395 13.4222 3.34486 13.4222 5.5664Z" stroke="#F7AC3B" stroke-width="3"/>
<path d="M5.28609 30.4407V28.9407H3.78609H3.23841C2.53105 28.9407 2 28.3965 2 27.7028V15.882C2 15.2043 2.56071 14.6436 3.23841 14.6436H15.5612C16.2389 14.6436 16.7997 15.2043 16.7997 15.882V16.0609C14.3418 17.5082 12.692 20.1873 12.692 23.23V37.561C12.692 38.8408 13.0141 40.0487 13.5136 41.1076V41.3943C13.5136 42.0723 12.953 42.6328 12.2752 42.6328H6.5245C5.84664 42.6328 5.28609 42.0723 5.28609 41.3943V30.4407Z" stroke="black" stroke-width="3"/>
<path d="M51.6687 5.5664C51.6687 7.78794 49.8678 9.58886 47.6462 9.58886C45.4247 9.58886 43.6238 7.78794 43.6238 5.5664C43.6238 3.34486 45.4247 1.54395 47.6462 1.54395C49.8678 1.54395 51.6687 3.34486 51.6687 5.5664Z" stroke="#F7AC3B" stroke-width="3"/>
<path d="M53.2143 28.8487H51.7143V30.3487V41.3023C51.7143 41.98 51.1536 42.5407 50.4759 42.5407H44.7253C44.0473 42.5407 43.4869 41.9802 43.4869 41.3023V41.0378C44.0395 39.9309 44.3079 38.7106 44.3079 37.4685V23.1832C44.3079 20.1405 42.6586 17.4613 40.2003 16.014V15.8351C40.2003 15.1573 40.7612 14.5967 41.4387 14.5967H53.7616C54.4396 14.5967 55 15.1572 55 15.8351V27.6102C55 28.2881 54.4396 28.8487 53.7616 28.8487H53.2143Z" stroke="black" stroke-width="3"/>
<path d="M23.6333 40.2976V38.7976H22.1333H21.0836C20.4059 38.7976 19.8452 38.2369 19.8452 37.5592V27.7009V23.2282C19.8452 22.5343 20.3767 21.99 21.0832 21.9902H21.0836H36.008C36.6856 21.9902 37.2464 22.5509 37.2464 23.2286V27.7014V37.5135C37.2464 38.1915 36.6858 38.752 36.008 38.752H34.9582H33.4582V40.252V53.2138C33.4582 53.8915 32.8975 54.4522 32.2198 54.4522H24.8718C24.1941 54.4522 23.6333 53.8915 23.6333 53.2138V40.2976Z" stroke="black" stroke-width="3"/>
<path d="M33.367 11.8645C33.367 14.5397 31.1983 16.7085 28.5231 16.7085C25.8478 16.7085 23.6791 14.5397 23.6791 11.8645C23.6791 9.18923 25.8478 7.02051 28.5231 7.02051C31.1983 7.02051 33.367 9.18923 33.367 11.8645Z" stroke="#F7AC3B" stroke-width="3"/>
</g>
<defs>
<clipPath id="clip0_992_633">
<rect width="56" height="56" fill="white" transform="translate(0.5)"/>
</clipPath>
</defs>
</svg>
