<svg width="41" height="41" viewBox="0 0 41 41" fill="none" xmlns="http://www.w3.org/2000/svg">
<path d="M21.9053 30.7608C24.7598 32.1974 28.1206 33.2333 32.0626 33.6766C33.0192 33.7842 33.8334 33.0177 33.8334 32.055V28.4673C33.8334 27.7025 33.3129 27.0359 32.5709 26.8504L28.0822 25.7282C27.5142 25.5862 26.9134 25.7526 26.4994 26.1666L21.9053 30.7608ZM21.9053 30.7608C16.7125 28.1473 13.1951 24.2077 10.902 20.0974M10.902 20.0974C8.71722 16.1814 7.64373 12.1106 7.29137 8.88408C7.18907 7.94741 7.9476 7.16602 8.88983 7.16602H12.467C13.2615 7.16602 13.9455 7.72678 14.1013 8.50582L15.3251 14.6247C15.4344 15.1711 15.2633 15.736 14.8693 16.1301L10.902 20.0974Z" stroke="black" stroke-width="3.33333"/>
<path d="M22.0901 12.3194C23.7299 12.6381 25.236 13.4423 26.4131 14.6276C27.5902 15.813 28.3839 17.3247 28.6911 18.9667M22.3281 5.61133C25.6322 6.01702 28.7074 7.5103 31.0695 9.85596C33.4316 12.2016 34.9463 15.2664 35.3751 18.5676" stroke="#F7AC3B" stroke-width="3.33333" stroke-linecap="round" stroke-linejoin="round"/>
</svg>
