<svg width="40" height="40" viewBox="0 0 40 40" fill="none" xmlns="http://www.w3.org/2000/svg">
<path d="M4.61685 12.1994L13.6044 19.9998L4.61685 27.8003C4.07616 28.2697 4.01816 29.0884 4.48752 29.6292C4.95687 30.1699 5.77563 30.2277 6.31632 29.7585L15.5823 21.7165L19.1503 24.8132C19.3941 25.0248 19.6971 25.1305 20.0001 25.1305C20.303 25.1305 20.606 25.0248 20.8498 24.8132L24.4178 21.7165L33.6838 29.7585C34.2245 30.2278 35.0432 30.1699 35.5126 29.6292C35.9819 29.0884 35.9239 28.2697 35.3833 27.8003L26.3957 19.9998L35.3833 12.1994C35.924 11.73 35.9819 10.9113 35.5126 10.3705C35.0432 9.82973 34.2243 9.77191 33.6838 10.2412C32.9299 10.8955 20.8028 21.4207 20.0001 22.1174C19.1971 21.4205 7.06997 10.8953 6.31632 10.2412C5.77563 9.77191 4.95678 9.82991 4.48752 10.3705C4.01816 10.9113 4.07616 11.73 4.61685 12.1994Z" fill="#F7AC3B"/>
<path d="M38.7037 5.54102H1.29636C0.58044 5.54102 0 6.12154 0 6.83746V33.1615C0 33.8776 0.58044 34.4579 1.29636 34.4579H38.7036C39.4196 34.4579 40 33.8776 40 33.1615V6.83746C40.0001 6.12154 39.4197 5.54102 38.7037 5.54102ZM37.4074 31.8651H37.4073H2.59281V8.13382H37.4074V31.8651Z" fill="black"/>
</svg>
