<svg width="32" height="32" viewBox="0 0 32 32" fill="none" xmlns="http://www.w3.org/2000/svg">
<path fill-rule="evenodd" clip-rule="evenodd" d="M14.6999 28.9998C14.0192 28.9998 13.4384 28.5071 13.3275 27.8354C13.2255 27.292 12.8342 26.848 12.3079 26.6784C11.8791 26.5312 11.4599 26.3575 11.0525 26.1584C10.5678 25.9105 9.98641 25.9476 9.53711 26.255C8.9934 26.6459 8.24649 26.5854 7.77284 26.112L5.93057 24.2697C5.43477 23.7739 5.37035 22.9922 5.77828 22.4219C6.09289 21.9622 6.13821 21.3696 5.89714 20.8674C5.7383 20.5186 5.5982 20.1615 5.47743 19.7977C5.30447 19.2245 4.82703 18.795 4.23872 18.6835C3.52927 18.5701 3.00553 17.9608 3.00002 17.2423V14.9376C2.99624 14.1095 3.59437 13.4012 4.41144 13.2662C5.03128 13.1483 5.54886 12.7237 5.78571 12.1389C5.85628 11.9743 5.93057 11.8108 6.00857 11.6486C6.32358 11.0422 6.28006 10.3117 5.89528 9.74695C5.41408 9.07815 5.48796 8.15928 6.06985 7.57597L7.4237 6.22212C8.09143 5.55415 9.14453 5.46771 9.91225 6.01783L9.95497 6.04755C10.5282 6.43339 11.2577 6.50327 11.8938 6.23326C12.5743 5.98833 13.0758 5.40357 13.2142 4.6937L13.2328 4.63056C13.3857 3.6908 14.1972 3.00038 15.1494 3H16.7836C17.7614 2.99955 18.596 3.70677 18.7559 4.67142L18.7856 4.80142C18.9169 5.48145 19.3924 6.04424 20.041 6.28712C20.6661 6.55541 21.385 6.48535 21.9464 6.10141L22.0393 6.03455C22.827 5.4669 23.91 5.55421 24.5966 6.24069L25.8427 7.48868C26.4672 8.11669 26.5457 9.10425 26.0284 9.82309C25.6231 10.4239 25.5714 11.196 25.8928 11.8455L25.9727 12.0312C26.2331 12.6654 26.7961 13.125 27.4696 13.2532C28.3496 13.3967 28.9969 14.1555 28.9998 15.0472V17.1142C28.9996 17.9004 28.4309 18.5712 27.6553 18.7002C27.0173 18.8225 26.4977 19.2844 26.3014 19.9036C26.2148 20.1512 26.1182 20.3988 26.0117 20.6464C25.7639 21.1905 25.8189 21.8245 26.1566 22.3179C26.6022 22.9378 26.533 23.7893 25.9931 24.3291L24.2641 26.06C23.7697 26.5543 22.99 26.618 22.4219 26.2104C21.9477 25.8864 21.3333 25.8507 20.8247 26.1175C20.4624 26.297 20.0904 26.4564 19.7105 26.5948C19.1793 26.7781 18.7877 27.2328 18.6853 27.7852C18.5771 28.4803 17.9811 28.9945 17.2776 28.9998H14.6999Z" stroke="currentColor" stroke-width="2.08927" stroke-linecap="round" stroke-linejoin="round"/>
<path fill-rule="evenodd" clip-rule="evenodd" d="M20.3324 16.0007C20.3324 18.3935 18.3925 20.3333 15.9997 20.3333C13.6068 20.3333 11.667 18.3935 11.667 16.0007C11.667 13.6078 13.6068 11.668 15.9997 11.668C18.3925 11.668 20.3324 13.6078 20.3324 16.0007Z" stroke="currentColor" stroke-width="2.08927" stroke-linecap="round" stroke-linejoin="round"/>
</svg>
