<svg width="64" height="64" viewBox="0 0 64 64" fill="none" xmlns="http://www.w3.org/2000/svg">
<path d="M57.4547 16.612L43.5655 0.955615C43.0157 0.274903 42.335 0 41.5234 0H8.57435C7.08202 0 5.8515 1.23052 5.8515 2.72285V61.2772C5.8515 62.7695 7.08202 64 8.57435 64H55.4256C56.918 64 58.0176 62.7695 58.1485 61.4081V18.3923C58.1354 17.7116 57.8736 17.1618 57.4547 16.612ZM44.1154 9.63469L49.4432 15.6695H44.1154V9.63469ZM52.6897 58.6983H11.2972V5.31479H38.8006V18.2483C38.8006 19.7406 40.0311 20.9712 41.5234 20.9712H52.6897V58.6983Z" fill="black"/>
<path d="M17.8294 30.7756C17.8294 32.2679 19.0599 33.4984 20.5523 33.4984H43.4346C44.927 33.4984 46.1575 32.2679 46.1575 30.7756C46.1575 29.2833 44.927 28.0527 43.4346 28.0527H20.5523C19.0599 28.0527 17.8294 29.2833 17.8294 30.7756Z" fill="#F7AC3B"/>
<path d="M43.4346 44.9395H20.5523C19.0599 44.9395 17.8294 46.17 17.8294 47.6623C17.8294 49.1546 19.0599 50.3851 20.5523 50.3851H43.4346C44.927 50.3851 46.1575 49.1546 46.1575 47.6623C46.1575 46.17 44.927 44.9395 43.4346 44.9395Z" fill="#F7AC3B"/>
</svg>
