<svg width="57" height="56" viewBox="0 0 57 56" fill="none" xmlns="http://www.w3.org/2000/svg">
<g clip-path="url(#clip0_992_1330)">
<path d="M51.7503 20.2307L45.6274 26.3536C45.0096 26.2795 44.3519 26.225 43.6669 26.225C34.9556 26.225 27.6423 32.929 26.8428 41.568L26.8034 41.5877L11.8071 49.0858L14.9499 33.3673L15.1335 32.449L14.4713 31.7868L2.91529 20.2307L18.6414 18.1461L19.5627 18.024L19.9775 17.1924L27.3327 2.44694L34.6881 17.1924L35.1029 18.024L36.0241 18.1461L51.7503 20.2307ZM11.3615 49.6809C11.3619 49.6812 11.3624 49.6815 11.3628 49.6819L11.0009 50.1241L10.7497 49.6145C10.8191 49.5803 10.9036 49.5578 11.0009 49.5578C11.1246 49.5578 11.2509 49.5963 11.3615 49.6809ZM2.07928 19.3947C2.07951 19.395 2.07975 19.3952 2.07998 19.3954L2.07928 19.3947L1.66737 19.8066L2.07928 19.3947Z" stroke="black" stroke-width="3.5"/>
<path d="M32.5839 43.1416C32.5839 37.0315 37.5586 32.0586 43.6669 32.0586C49.775 32.0586 54.7499 37.0315 54.7499 43.1416C54.7499 49.2518 49.775 54.2246 43.6669 54.2246C37.5587 54.2246 32.5839 49.2518 32.5839 43.1416Z" stroke="#F7AC3B" stroke-width="3.5"/>
<path d="M39 43.75L41.625 46.375L47.75 40.25" stroke="#F7AC3B" stroke-width="2.625" stroke-linecap="round" stroke-linejoin="round"/>
</g>
<defs>
<clipPath id="clip0_992_1330">
<rect width="56" height="56" fill="white" transform="translate(0.5)"/>
</clipPath>
</defs>
</svg>
