<svg width="64" height="64" viewBox="0 0 64 64" fill="none" xmlns="http://www.w3.org/2000/svg">
<g clip-path="url(#clip0_162_2318)">
<path d="M62.7543 16.9706L33.0076 2.09744C32.3734 1.78002 31.6266 1.78002 30.9922 2.09744L1.24574 16.9706C0.482263 17.3525 0 18.1326 0 18.9863V59.8877C0 61.1322 1.00892 62.1413 2.25358 62.1413H9.69029C10.9347 62.1413 11.9439 61.1324 11.9439 59.8877V24.9581H52.0566V59.8877C52.0566 61.1322 53.0655 62.1413 54.3101 62.1413H61.7469C62.9913 62.1413 64.0004 61.1324 64.0004 59.8877V18.9863C64 18.1326 63.5177 17.3525 62.7543 16.9706ZM59.4931 57.6341H56.5635V22.7046C56.5635 21.4601 55.5546 20.451 54.3099 20.451H9.69007C8.44563 20.451 7.4365 21.4599 7.4365 22.7046V57.6341H4.50694V20.379L32 6.6326L59.4931 20.379V57.6341Z" fill="black"/>
<path d="M46.8732 28.5645H32C31.1288 28.5645 30.4226 29.2706 30.4226 30.1418V43.4377H17.1268C16.2556 43.4377 15.5494 44.1438 15.5494 45.015V59.8883C15.5494 60.7595 16.2556 61.4656 17.1268 61.4656H46.8732C47.7445 61.4656 48.4506 60.7595 48.4506 59.8883V30.142C48.4508 29.2706 47.7445 28.5645 46.8732 28.5645ZM33.5774 48.8238L37.2056 52.452L33.5774 56.0801V48.8238ZM30.4226 56.0799L26.7945 52.4518L30.4226 48.8236V56.0799ZM35.8086 46.5926H43.0647L39.4365 50.2208L35.8086 46.5926ZM35.8086 43.4377L39.4367 39.8095L43.0649 43.4377H35.8086ZM45.2959 41.2067L41.6679 37.5785L45.2959 33.9504V41.2067ZM39.4367 35.3476L35.8086 31.7194H43.0647L39.4367 35.3476ZM37.2056 37.5785L33.5774 41.2067V33.9506L37.2056 37.5785ZM24.5633 50.2208L20.9351 46.5926H28.1913L24.5633 50.2208ZM22.3324 52.4518L18.7042 56.0799V48.8238L22.3324 52.4518ZM24.5633 54.6829L28.1915 58.3111H20.9354L24.5633 54.6829ZM39.4365 54.6829L43.0647 58.3111H35.8086L39.4365 54.6829ZM41.6677 52.4518L45.2959 48.8236V56.0797L41.6677 52.4518Z" fill="#F7AC3B"/>
</g>
<defs>
<clipPath id="clip0_162_2318">
<rect width="64" height="64" fill="white"/>
</clipPath>
</defs>
</svg>
