<svg width="24" height="24" viewBox="0 0 24 24" fill="none" xmlns="http://www.w3.org/2000/svg">
<path d="M4.95566 22.283C4.95566 23.2298 5.67279 24 6.55429 24H17.4457C18.3272 24 19.0444 23.2298 19.0444 22.283V1.717C19.0444 0.770247 18.3272 0 17.4457 0H6.55429C5.67279 0 4.95566 0.770247 4.95566 1.717V22.283ZM5.91183 3.73133H18.0882V18.1873H5.91183V3.73133ZM5.91183 1.717C5.91183 1.29748 6.20002 0.956175 6.55429 0.956175H17.4457C17.8 0.956175 18.0882 1.29748 18.0882 1.717V2.77516H5.91183V1.717ZM18.0882 22.283C18.0882 22.7025 17.8 23.0438 17.4457 23.0438H6.55429C6.20002 23.0438 5.91183 22.7025 5.91183 22.283V19.1434H18.0882V22.283Z" fill="currentColor"/>
<path d="M12 22.4143C12.7419 22.4143 13.3453 21.8108 13.3453 21.069C13.3453 20.3271 12.7419 19.7236 12 19.7236C11.2582 19.7236 10.6547 20.3271 10.6547 21.069C10.6547 21.8108 11.2582 22.4143 12 22.4143ZM12 20.6799C12.2146 20.6799 12.3892 20.8544 12.3892 21.069C12.3892 21.2836 12.2146 21.4582 12 21.4582C11.7854 21.4582 11.6108 21.2836 11.6108 21.069C11.6108 20.8544 11.7854 20.6799 12 20.6799Z" fill="currentColor"/>
<path d="M12.446 1.4375H11.554C11.2899 1.4375 11.0759 1.65159 11.0759 1.91559C11.0759 2.17959 11.2899 2.39368 11.554 2.39368H12.446C12.71 2.39368 12.9241 2.17959 12.9241 1.91559C12.9241 1.65159 12.71 1.4375 12.446 1.4375Z" fill="currentColor"/>
</svg>
