<svg width="41" height="40" viewBox="0 0 41 40" fill="none" xmlns="http://www.w3.org/2000/svg">
<g clip-path="url(#clip0_165_2799)">
<path d="M20.5 0C9.4407 0 0.5 8.9407 0.5 20C0.5 31.0593 9.4407 40 20.5 40C31.5593 40 40.5 31.0675 40.5 20C40.5 8.93252 31.5675 0 20.5 0ZM22.2014 36.5971V35.7464C22.2014 34.8139 21.4325 34.045 20.5 34.045C19.5675 34.045 18.7986 34.8139 18.7986 35.7464V36.5971C10.9622 35.7955 4.7045 29.5378 3.91104 21.7096H4.67178C5.60429 21.7096 6.37321 20.9407 6.37321 20.0082C6.37321 19.0757 5.60429 18.3067 4.67178 18.3067H3.91104C4.71268 10.4703 10.9703 4.21268 18.7986 3.41922V4.17178C18.7986 5.10429 19.5675 5.87321 20.5 5.87321C21.4325 5.87321 22.2014 5.10429 22.2014 4.17178V3.41104C30.0378 4.21268 36.2955 10.4703 37.089 18.2986H36.2464C35.3139 18.2986 34.545 19.0675 34.545 20C34.545 20.9325 35.3139 21.7014 36.2464 21.7014H37.0971C36.2955 29.5378 30.0378 35.7955 22.2014 36.5971Z" fill="black"/>
<path d="M20.5 10.2168C19.5675 10.2168 18.7986 10.9857 18.7986 11.9182V19.4029L11.0521 28.9407C10.455 29.7096 10.6268 30.724 11.3057 31.3211C12.2546 32.0164 13.2607 31.4929 13.6043 31.0675L21.866 21.0225C22.0378 20.7689 22.2096 20.4254 22.2096 20V11.9182C22.2014 10.9775 21.4407 10.2168 20.5 10.2168Z" fill="#F7AC3B"/>
</g>
<defs>
<clipPath id="clip0_165_2799">
<rect width="40" height="40" fill="white" transform="translate(0.5)"/>
</clipPath>
</defs>
</svg>
