<svg width="24" height="24" viewBox="0 0 24 24" fill="none" xmlns="http://www.w3.org/2000/svg">
<path d="M18.0872 9.86992H17.1742V7.13078C17.1742 4.27794 14.8532 1.95703 12.0004 1.95703C9.14751 1.95703 6.82654 4.27794 6.82654 7.13078V9.86992H5.91351C5.40928 9.86992 5.00049 10.2787 5.00049 10.783V21.1306C5.00049 21.6348 5.40928 22.0436 5.91351 22.0436H18.0872C18.5914 22.0436 19.0002 21.6348 19.0002 21.1306V10.783C19.0002 10.2787 18.5914 9.86992 18.0872 9.86992ZM8.65259 7.13078C8.65259 5.28489 10.1544 3.78308 12.0004 3.78308C13.8463 3.78308 15.3481 5.28489 15.3481 7.13078V9.86992H8.65259V7.13078ZM17.1742 20.2176H6.82654V11.696H7.73957H16.2611H17.1742V20.2176Z" fill="currentColor"/>
<path d="M9.9165 16.4167L11.1665 17.6667L14.0832 14.75" stroke="currentColor" stroke-width="2" stroke-linecap="round" stroke-linejoin="round"/>
</svg>
