<svg width="24" height="24" viewBox="0 0 24 24" fill="none" xmlns="http://www.w3.org/2000/svg">
<g clip-path="url(#clip0_114_3060)">
<path d="M12 2.25C9.51472 2.25 7.5 4.26472 7.5 6.75C7.5 9.23528 9.51472 11.25 12 11.25C14.4853 11.25 16.5 9.23528 16.5 6.75C16.5 4.26472 14.4853 2.25 12 2.25ZM12 3.75C13.6569 3.75 15 5.09315 15 6.75C15 8.40685 13.6569 9.75 12 9.75C10.3431 9.75 9 8.40685 9 6.75C9 5.09315 10.3431 3.75 12 3.75Z" fill="currentColor"/>
<path d="M12 12C7.8802 12 4.5 14.9213 4.5 18.5836C4.5 22.8055 19.5 22.8055 19.5 18.5836C19.5 14.9213 16.1198 12 12 12ZM12 13.5C15.336 13.5 18 15.8023 18 18.5836C18 19.4208 16.2962 19.9426 14.1725 20.1488L13.6756 20.1908C12.5853 20.2697 11.4147 20.2697 10.3244 20.1908L9.82748 20.1488C7.70384 19.9426 6 19.4208 6 18.5836C6 15.8023 8.66396 13.5 12 13.5Z" fill="currentColor"/>
</g>
<defs>
<clipPath id="clip0_114_3060">
<rect width="24" height="24" fill="white"/>
</clipPath>
</defs>
</svg>
