<svg width="48" height="48" viewBox="0 0 48 48" fill="none" xmlns="http://www.w3.org/2000/svg">
<g clip-path="url(#clip0_878_1087)">
<path d="M43.1571 13.9308C42.7088 12.0931 41.3708 10.6606 39.6648 10.1435L39.6314 10.1366C36.5004 9.33302 23.9967 9.33301 23.9967 9.33301C23.9967 9.33301 11.4929 9.33301 8.36193 10.2064C6.62251 10.7305 5.28448 12.1629 4.84294 13.9657L4.83626 14.0006C4.30105 16.9354 4 20.3173 4 23.7691C4 23.8669 4 23.9578 4 24.0556V24.0416C4 24.1464 4 24.2652 4 24.384C4 27.8358 4.30773 31.2177 4.88977 34.4949L4.84294 34.1525C5.338 35.9273 6.66264 37.2968 8.33516 37.7859L8.36862 37.7929C11.4929 38.6663 24.0033 38.6663 24.0033 38.6663C24.0033 38.6663 36.5071 38.6663 39.6381 37.7929C41.3775 37.2689 42.7155 35.8364 43.1571 34.0337L43.1637 33.9987C43.6989 31.064 44 27.6821 44 24.2303C44 24.1604 44 24.0905 44 24.0207V24.0346C44 23.9298 44 23.811 44 23.6922C44 20.2404 43.6923 16.8585 43.1102 13.5814L43.1571 13.9308Z" stroke="#D62D30" stroke-width="3" stroke-linecap="round" stroke-linejoin="round"/>
<path d="M19.8535 30.4111L30.5202 24.1254L19.8535 17.8397V30.4111Z" stroke="#D62D30" stroke-width="3" stroke-linecap="round" stroke-linejoin="round"/>
</g>
<defs>
<clipPath id="clip0_878_1087">
<rect width="48" height="48" fill="white"/>
</clipPath>
</defs>
</svg>
